<?xml version="1.0" encoding="utf-8"?>
<!-- Generator: Adobe Illustrator 22.0.1, SVG Export Plug-In . SVG Version: 6.00 Build 0)  -->
<svg version="1.1" id="Layer_1" xmlns="http://www.w3.org/2000/svg" xmlns:xlink="http://www.w3.org/1999/xlink" x="0px" y="0px"
	 viewBox="0 0 140.206 169.072" style="enable-background:new 0 0 140.206 169.072;" xml:space="preserve">
<g>
	<path d="M64.499,111.222c-2.821,0-13.048-0.705-21.099,13.401c-8.051,14.106-13.107,23.627-19.102,18.338
		c-5.995-5.29,2.821-13.048,9.169-21.511c6.348-8.464,10.162-15.869,10.162-22.922s-3.462-14.106-6.283-17.28
		c-2.821-3.174-20.806-19.396-12.343-26.096s15.869,16.222,20.101,21.864c4.232,5.642,11.99,9.995,19.396,9.995
		s15.164-4.353,19.396-9.995c4.232-5.642,11.637-28.564,20.101-21.864s-9.521,22.922-12.343,26.096
		c-2.821,3.174-6.283,10.227-6.283,17.28s3.814,14.459,10.162,22.922c6.348,8.464,15.164,16.222,9.169,21.511
		c-5.995,5.29-11.051-4.232-19.102-18.338C77.547,110.516,67.32,111.222,64.499,111.222z"/>
</g>
<g>
	<g>
		<path d="M64.499,79.457c-9.995,0-13.912-7.986-14.074-8.326c-0.593-1.247-0.064-2.738,1.183-3.332
			c1.243-0.591,2.727-0.068,3.325,1.168c0.125,0.251,2.813,5.49,9.566,5.49c7.083,0,10.813-5.692,10.85-5.75
			c0.745-1.163,2.292-1.501,3.454-0.755c1.163,0.745,1.5,2.292,0.755,3.454C79.348,71.734,74.285,79.457,64.499,79.457z"/>
	</g>
</g>
<g>
	<path d="M61.099,53.935l-0.708-29.516c-0.054-2.269,1.741-4.152,4.009-4.206c2.269-0.054,4.152,1.741,4.206,4.009
		c0.001,0.061,0.001,0.137,0,0.197l-0.708,29.516c-0.045,1.878-1.604,3.364-3.482,3.319C62.597,57.21,61.145,55.735,61.099,53.935z"
		/>
</g>
<g>
	<path d="M51.653,56.055l-7.491-23.602c-0.794-2.502,0.59-5.174,3.093-5.969c2.502-0.794,5.174,0.59,5.969,3.093
		c0.052,0.165,0.096,0.335,0.129,0.5l4.884,24.275c0.371,1.844-0.823,3.639-2.667,4.01C53.855,58.708,52.177,57.682,51.653,56.055z"
		/>
</g>
<g>
	<path d="M43.515,61.618L32.265,44.082c-1.418-2.211-0.776-5.153,1.435-6.572c2.211-1.418,5.153-0.776,6.571,1.435
		c0.107,0.167,0.214,0.363,0.298,0.538l8.895,18.84c0.803,1.702,0.075,3.732-1.626,4.536C46.271,63.599,44.425,63.04,43.515,61.618z
		"/>
</g>
<g>
	<path d="M70.76,54.353l4.884-24.275c0.518-2.574,3.024-4.24,5.598-3.722c2.574,0.518,4.24,3.024,3.722,5.598
		c-0.034,0.169-0.079,0.339-0.129,0.5l-7.491,23.602c-0.569,1.792-2.483,2.784-4.276,2.215C71.401,57.741,70.43,56.03,70.76,54.353z
		"/>
</g>
<g>
	<path d="M79.534,58.324l8.895-18.84c1.122-2.375,3.956-3.392,6.332-2.27s3.392,3.956,2.27,6.332
		c-0.085,0.18-0.194,0.374-0.298,0.538L85.482,61.618c-1.016,1.584-3.124,2.044-4.708,1.028
		C79.316,61.71,78.811,59.849,79.534,58.324z"/>
</g>
<g>
	<path d="M120.304,137.951c0,3.348-2.628,5.976-6.047,5.976c-3.384,0-6.083-2.628-6.083-5.976c0-3.275,2.7-5.903,6.083-5.903
		C117.676,132.047,120.304,134.675,120.304,137.951z M109.685,137.951c0,2.628,1.943,4.716,4.607,4.716c2.591,0,4.5-2.088,4.5-4.68
		c0-2.628-1.908-4.751-4.536-4.751C111.629,133.236,109.685,135.359,109.685,137.951z M113.321,141.046h-1.368v-5.903
		c0.54-0.107,1.296-0.18,2.268-0.18c1.116,0,1.62,0.18,2.052,0.432c0.324,0.252,0.576,0.72,0.576,1.296
		c0,0.648-0.504,1.152-1.224,1.368v0.072c0.576,0.216,0.9,0.647,1.08,1.439c0.18,0.899,0.288,1.26,0.432,1.476h-1.476
		c-0.18-0.216-0.288-0.756-0.468-1.439c-0.108-0.648-0.468-0.937-1.224-0.937h-0.648V141.046z M113.357,137.699h0.648
		c0.756,0,1.368-0.252,1.368-0.863c0-0.54-0.396-0.9-1.26-0.9c-0.36,0-0.612,0.036-0.756,0.072V137.699z"/>
</g>
</svg>
